<?xml version="1.0" encoding="utf-8"?>

<svg version="1.1" id="Layer_1" xmlns="http://www.w3.org/2000/svg" xmlns:xlink="http://www.w3.org/1999/xlink" x="0px" y="0px"
	 viewBox="0 0 300 193" style="enable-background:new 0 0 300 193;" xml:space="preserve">
<style type="text/css">
	.st0{fill:#FFFFFF;}
	.st1{fill:#F9A026;}
</style>
<g id="XMLID_7_">
	<path id="XMLID_8_" class="st0" d="M187.9,192.6H0v-85.2c-0.1-3.4,0.7-12.8,10.9-23.6l70.8-73.6C84.5,6.6,92.6,0,112.1,0H300v85.2
		c0.1,3.4-0.8,12.9-10.9,23.6l-70.8,73.6C215.5,186,207.4,192.6,187.9,192.6z M7.9,184.7h180c16.7,0,22.6-5.2,24.4-7.5l71-73.9
		c8.3-8.8,8.8-16,8.7-18V7.9h-180c-16.7,0-22.6,5.2-24.4,7.5l-71,73.9c-8.3,8.8-8.8,16-8.7,18V184.7z"/>
</g>
<g id="XMLID_5_">
	<path id="XMLID_6_" class="st1" d="M288.2,85.3V11.8h-41v62l-61.6,65.4h-15.3V80.5l-40.6,43.1v37.6c0,19.1,16.7,19.6,16.7,19.6h3.3
		h38.2c17.7,0,21.5-6.2,21.5-6.2l71.1-74C288.6,92,288.2,85.3,288.2,85.3z"/>
</g>
<path id="XMLID_4_" class="st0" d="M153.6,11.8h-3.3h-38.2c-17.7,0-21.5,6.2-21.5,6.2L19.5,92c-8.1,8.6-7.6,15.3-7.6,15.3v73.5h41
	v-62l61.6-65.4h15.3v14.4h-22.5l-38.6,41l61.1-0.8v9.8l40.6-43.1V31.4C170.3,12.3,153.6,11.8,153.6,11.8z"/>
</svg>
