<?xml version="1.0" encoding="utf-8"?>
<!DOCTYPE svg PUBLIC "-//W3C//DTD SVG 1.1//EN" "http://www.w3.org/Graphics/SVG/1.1/DTD/svg11.dtd">
<svg version="1.1" id="Layer_1" xmlns="http://www.w3.org/2000/svg" xmlns:xlink="http://www.w3.org/1999/xlink" x="0px" y="0px"
	 viewBox="0 0 190 205" enable-background="new 0 0 190 205" xml:space="preserve">
<g>
	<path fill="#FFFFFF" d="M121.859,117.308H8.401V65.896c-0.063-2.069,0.451-7.746,6.587-14.243L57.722,7.196
		c1.703-2.188,6.576-6.157,18.324-6.157h113.456v51.414c0.061,2.074-0.46,7.757-6.587,14.243l-42.729,44.457
		C138.481,113.34,133.608,117.308,121.859,117.308z M13.158,112.551h108.702c10.099,0,13.672-3.159,14.74-4.516l42.873-44.623
		c5.031-5.323,5.31-9.684,5.272-10.893V5.795H76.046c-10.1,0-13.672,3.161-14.74,4.52L18.43,54.935
		c-5.035,5.331-5.31,9.684-5.272,10.889V112.551z"/>
</g>
<g>
	<path fill="#F9A026" d="M182.366,52.547V8.174h-24.778V45.63L120.42,85.107h-9.222v-35.49L86.709,75.63V98.36
		c0,11.524,10.083,11.812,10.083,11.812h2.016h23.051c10.661,0,12.967-3.744,12.967-3.744l42.932-44.663
		C182.655,56.58,182.366,52.547,182.366,52.547z"/>
</g>
<path fill="#FFFFFF" d="M101.112,8.174h-2.016H76.046c-10.659,0-12.968,3.747-12.968,3.747L20.145,56.582
	c-4.898,5.186-4.608,9.219-4.608,9.219v44.371h24.779V72.718l37.172-39.477h9.217v8.71h-13.58L49.806,66.715l36.898-0.492v5.941
	l24.495-26.015V19.987C111.198,8.461,101.112,8.174,101.112,8.174z"/>
<g>
	<path fill="#FFFFFF" d="M31.663,179.965c0-1.505,0.399-2.676,1.208-3.521c0.808-0.835,1.942-1.263,3.4-1.263h5.732
		c1.449,0,2.587,0.428,3.396,1.263c0.813,0.846,1.212,2.017,1.212,3.521v8.475l-9.542,0.026v9.199h4.13v-4.032l5.412-2.834v7.303
		c0,1.505-0.399,2.667-1.212,3.493c-0.809,0.827-1.947,1.235-3.396,1.235h-5.732c-1.458,0-2.593-0.408-3.4-1.235
		c-0.809-0.826-1.208-1.988-1.208-3.493V179.965z M37.07,184.676h4.13v-4.413h-4.13V184.676z"/>
	<path fill="#FFFFFF" d="M65.254,180.161l-5.509,2.787v-2.444H55.81v5.557h9.444v12.041c0,1.505-0.404,2.667-1.212,3.493
		c-0.809,0.827-1.942,1.235-3.4,1.235h-5.723c-1.459,0-2.593-0.408-3.4-1.235c-0.809-0.826-1.217-1.988-1.217-3.493v-0.781
		l5.509-2.797v3.039h3.935v-6.894l-9.444,0.026v-10.73c0-1.505,0.409-2.676,1.217-3.521c0.808-0.835,1.941-1.263,3.4-1.263h5.723
		c1.458,0,2.592,0.418,3.4,1.244c0.808,0.818,1.212,1.987,1.212,3.494V180.161z"/>
	<path fill="#FFFFFF" d="M84.695,194.013l-9.853,0.019v8.809h-5.653v-28.06h10.898c1.459,0,2.592,0.418,3.4,1.246
		c0.804,0.817,1.208,1.979,1.208,3.465V194.013z M79.048,189.154v-8.909h-4.206v8.909H79.048z"/>
	<path fill="#FFFFFF" d="M88.073,179.965c0-1.505,0.404-2.676,1.213-3.521c0.813-0.835,1.941-1.263,3.4-1.263h5.729
		c1.453,0,2.591,0.428,3.396,1.263c0.816,0.846,1.217,2.017,1.217,3.521v18.09c0,1.579-0.396,2.778-1.19,3.576
		c-0.79,0.801-1.97,1.199-3.521,1.199h-5.63c-1.459,0-2.587-0.408-3.4-1.235c-0.809-0.826-1.213-1.988-1.213-3.493V179.965z
		 M97.518,180.504h-3.93v17.059h3.93V180.504z"/>
	<path fill="#FFFFFF" d="M106.715,175.181h5.51v2.795c0.265-0.9,0.678-1.597,1.245-2.071c0.581-0.482,1.292-0.724,2.128-0.724h0.855
		c1.374,0,2.406,0.408,3.093,1.198c0.688,0.809,1.031,2.007,1.031,3.586v2.527l-5.509,2.788v-4.776h-2.844v22.326h-5.51V175.181z"/>
	<path fill="#FFFFFF" d="M129.078,202.84v-22.549h-5.583v-5.511h16.826v5.511h-5.584v22.549H129.078z"/>
	<path fill="#FFFFFF" d="M158.419,180.161l-5.51,2.787v-2.444h-3.93v5.557h9.439v12.041c0,1.505-0.404,2.667-1.207,3.493
		c-0.813,0.827-1.946,1.235-3.405,1.235h-5.728c-1.459,0-2.588-0.408-3.401-1.235c-0.809-0.826-1.208-1.988-1.208-3.493v-0.781
		l5.51-2.797v3.039h3.93v-6.894l-9.439,0.026v-10.73c0-1.505,0.399-2.676,1.208-3.521c0.813-0.835,1.942-1.263,3.401-1.263h5.728
		c1.459,0,2.593,0.418,3.405,1.244c0.803,0.818,1.207,1.987,1.207,3.494V180.161z"/>
</g>
<g>
	<g>
		<path fill="#F9A026" d="M28.904,171.502h-9.969v-10.75l-7.396,0.046v10.704H1.57v-41.207c0-2.628,0.707-4.662,2.118-6.118
			c1.413-1.454,3.382-2.183,5.923-2.183h11.167c2.537,0,4.529,0.729,5.969,2.183c1.44,1.456,2.156,3.49,2.156,6.118V171.502z
			 M18.897,149.882l0.037-18.266h-7.396v18.312L18.897,149.882z"/>
		<path fill="#F9A026" d="M40.712,171.566l-8.724-48.643h9.625l4.92,34.78l4.789-34.864h9.672l-8.771,48.727H40.712z"/>
		<path fill="#F9A026" d="M63.605,131.262c0-2.657,0.71-4.721,2.137-6.195c1.431-1.487,3.424-2.227,5.993-2.227h10.093
			c2.57,0,4.563,0.739,5.989,2.227c1.426,1.475,2.136,3.538,2.136,6.195v14.94l-16.808,0.038v16.221h7.271v-7.107l9.537-5.007
			v12.877c0,2.655-0.71,4.711-2.136,6.159c-1.427,1.449-3.419,2.184-5.989,2.184H71.735c-2.569,0-4.562-0.734-5.993-2.184
			c-1.426-1.448-2.137-3.504-2.137-6.159V131.262z M73.146,139.568h7.271v-7.795h-7.271V139.568z"/>
		<path fill="#F9A026" d="M96.457,122.84h9.719v4.91c0.4-1.562,1.116-2.778,2.16-3.627c1.037-0.86,2.301-1.283,3.786-1.283h3.424
			c2.394,0,4.205,0.715,5.432,2.132c1.227,1.432,1.838,3.522,1.838,6.29v40.305h-9.708V132.2h-6.932v39.366h-9.719V122.84z"/>
		<path fill="#F9A026" d="M155.675,171.566h-9.715v-4.925c-0.456,1.747-1.151,2.991-2.095,3.764
			c-0.942,0.78-2.253,1.161-3.935,1.161h-3.34c-2.425,0-4.242-0.688-5.454-2.071c-1.213-1.385-1.816-3.484-1.816-6.271V122.84h9.713
			v39.445h6.927V122.84h9.715V171.566z"/>
		<path fill="#F9A026" d="M162.178,131.262c0-2.657,0.711-4.721,2.141-6.195c1.422-1.487,3.419-2.227,5.983-2.227h10.1
			c2.568,0,4.566,0.739,5.988,2.227c1.426,1.475,2.138,3.538,2.138,6.195v14.94l-16.808,0.038v16.221h7.274v-7.107l9.533-5.007
			v12.877c0,2.655-0.712,4.711-2.138,6.159c-1.422,1.449-3.42,2.184-5.988,2.184h-10.1c-2.564,0-4.562-0.734-5.983-2.184
			c-1.43-1.448-2.141-3.504-2.141-6.159V131.262z M171.72,139.568h7.274v-7.795h-7.274V139.568z"/>
	</g>
</g>
</svg>